<?xml version="1.0" encoding="UTF-8"?>
<svg id="Layer_1" data-name="Layer 1" xmlns="http://www.w3.org/2000/svg" viewBox="0 0 500 500">
  <defs>
    <style>
      .cls-1 {
        fill: #fff;
      }
    </style>
  </defs>
  <g>
    <path class="cls-1" d="M59.4,232.43h35.14v-17.51h0c-11.25,0-22.04,4.46-30.01,12.4l-5.13,5.11Z"/>
    <path class="cls-1" d="M59.38,232.43v35.14h-17.51c0-11.25,4.46-22.04,12.4-30.01l5.11-5.13Z"/>
    <path class="cls-1" d="M59.38,267.57h35.14s0,17.51,0,17.51h0c-11.25,0-22.04-4.46-30.01-12.4l-5.13-5.11Z"/>
  </g>
  <g>
    <path class="cls-1" d="M135.01,274.55c-6.14,0-11.24-2.05-15.31-6.15-4.07-4.1-6.11-9.19-6.11-15.27s2.04-11.17,6.11-15.27c4.07-4.1,9.17-6.15,15.31-6.15,4.02,0,7.63.96,10.83,2.89,3.2,1.93,5.59,4.52,7.17,7.78l-5.94,3.42c-1.03-2.17-2.62-3.91-4.76-5.21-2.15-1.3-4.57-1.95-7.29-1.95-4.07,0-7.48,1.38-10.22,4.15-2.74,2.77-4.11,6.22-4.11,10.34s1.37,7.49,4.11,10.26c2.74,2.77,6.15,4.15,10.22,4.15,2.71,0,5.16-.64,7.33-1.91,2.17-1.28,3.83-3,4.97-5.17l6.03,3.5c-1.74,3.2-4.23,5.77-7.49,7.7-3.26,1.93-6.87,2.89-10.83,2.89Z"/>
    <path class="cls-1" d="M194.13,268.36c-4.18,4.13-9.26,6.19-15.23,6.19s-11.03-2.06-15.19-6.19c-4.15-4.13-6.23-9.2-6.23-15.23s2.08-11.1,6.23-15.23c4.15-4.12,9.22-6.19,15.19-6.19s11.05,2.06,15.23,6.19c4.18,4.13,6.27,9.2,6.27,15.23s-2.09,11.1-6.27,15.23ZM178.9,267.63c4.07,0,7.49-1.38,10.26-4.15,2.77-2.77,4.15-6.22,4.15-10.34s-1.38-7.57-4.15-10.34c-2.77-2.77-6.19-4.15-10.26-4.15s-7.41,1.38-10.18,4.15c-2.77,2.77-4.15,6.22-4.15,10.34s1.38,7.57,4.15,10.34c2.77,2.77,6.16,4.15,10.18,4.15Z"/>
    <path class="cls-1" d="M229.06,231.71c4.78,0,8.6,1.51,11.48,4.52,2.88,3.01,4.32,7.1,4.32,12.26v25h-7.08v-24.59c0-3.31-.9-5.88-2.69-7.7-1.79-1.82-4.26-2.73-7.41-2.73-3.53,0-6.38,1.1-8.55,3.3-2.17,2.2-3.26,5.58-3.26,10.14v21.58h-7.08v-40.72h7.08v5.86c2.88-4.61,7.27-6.92,13.19-6.92Z"/>
    <path class="cls-1" d="M276.86,239.61h-10.83v22.07c0,2.01.39,3.43,1.18,4.28.79.84,2,1.28,3.62,1.3,1.63.03,3.64-.01,6.03-.12v6.35c-6.19.81-10.72.31-13.6-1.51-2.88-1.82-4.32-5.25-4.32-10.3v-22.07h-8.06v-6.84h8.06v-9.28l7.08-2.12v11.4h10.83v6.84Z"/>
    <path class="cls-1" d="M288.18,256.39c.7,3.64,2.37,6.46,5.01,8.47,2.63,2.01,5.88,3.01,9.73,3.01,5.37,0,9.28-1.98,11.73-5.94l6.03,3.42c-3.96,6.13-9.94,9.2-17.91,9.2-6.46,0-11.71-2.02-15.76-6.07-4.05-4.04-6.07-9.16-6.07-15.35s1.98-11.24,5.94-15.31c3.96-4.07,9.09-6.11,15.39-6.11,5.97,0,10.84,2.1,14.62,6.31,3.77,4.21,5.66,9.27,5.66,15.19,0,1.03-.08,2.09-.24,3.18h-34.12ZM302.27,238.39c-3.8,0-6.95,1.07-9.45,3.22-2.5,2.15-4.05,5.01-4.64,8.59h27.2c-.6-3.85-2.12-6.79-4.56-8.79-2.44-2.01-5.29-3.01-8.55-3.01Z"/>
    <path class="cls-1" d="M350.96,231.71c4.78,0,8.6,1.51,11.48,4.52,2.88,3.01,4.32,7.1,4.32,12.26v25h-7.08v-24.59c0-3.31-.9-5.88-2.69-7.7-1.79-1.82-4.26-2.73-7.41-2.73-3.53,0-6.38,1.1-8.55,3.3-2.17,2.2-3.26,5.58-3.26,10.14v21.58h-7.08v-40.72h7.08v5.86c2.88-4.61,7.27-6.92,13.19-6.92Z"/>
    <path class="cls-1" d="M410.98,268.36c-4.18,4.13-9.26,6.19-15.23,6.19s-11.03-2.06-15.19-6.19c-4.15-4.13-6.23-9.2-6.23-15.23s2.08-11.1,6.23-15.23c4.15-4.12,9.21-6.19,15.19-6.19s11.05,2.06,15.23,6.19c4.18,4.13,6.27,9.2,6.27,15.23s-2.09,11.1-6.27,15.23ZM395.75,267.63c4.07,0,7.49-1.38,10.26-4.15,2.77-2.77,4.15-6.22,4.15-10.34s-1.38-7.57-4.15-10.34c-2.77-2.77-6.19-4.15-10.26-4.15s-7.41,1.38-10.18,4.15c-2.77,2.77-4.15,6.22-4.15,10.34s1.38,7.57,4.15,10.34,6.16,4.15,10.18,4.15Z"/>
    <path class="cls-1" d="M458.13,273.49h-8.31l-11.44-15.38-11.44,15.38h-8.31l15.59-20.96-14.7-19.75h8.39l10.49,14.14,10.52-14.14h8.31l-14.68,19.73,15.57,20.99Z"/>
  </g>
</svg>