<svg xmlns="http://www.w3.org/2000/svg" viewBox="0 0 785 578">
<rect width="785" height="578" rx="67" ry="67" fill="#f8f8f8"/>
<path d="M 531,518 L 530,519 L 527,519 L 524,522 L 524,523 L 523,524 L 523,548 L 525,550 L 525,551 L 526,551 L 527,552 L 528,552 L 529,553 L 754,553 L 755,552 L 756,552 L 757,551 L 758,551 L 759,550 L 759,549 L 760,548 L 760,524 L 759,523 L 759,522 L 756,519 L 532,519 Z" fill="black"/>
<path d="M 436,200 L 435,201 L 434,201 L 433,202 L 432,202 L 429,205 L 428,205 L 428,206 L 425,209 L 425,210 L 424,211 L 424,213 L 423,214 L 423,225 L 424,226 L 424,227 L 425,228 L 425,229 L 426,230 L 426,231 L 448,253 L 448,254 L 449,254 L 450,255 L 450,256 L 498,304 L 483,319 L 483,320 L 433,370 L 433,371 L 425,379 L 425,380 L 424,381 L 424,382 L 423,383 L 423,386 L 422,387 L 422,391 L 423,392 L 423,395 L 424,396 L 424,398 L 425,399 L 425,400 L 431,406 L 432,406 L 433,407 L 434,407 L 435,408 L 436,408 L 437,409 L 448,409 L 449,408 L 451,408 L 453,406 L 454,406 L 496,364 L 496,363 L 541,318 L 541,317 L 544,314 L 544,313 L 545,312 L 545,310 L 546,309 L 546,299 L 545,298 L 545,296 L 544,295 L 544,294 L 469,219 L 469,218 L 464,213 L 463,213 L 462,212 L 462,211 L 458,207 L 457,207 L 452,202 L 451,202 L 450,201 L 449,201 L 448,200 Z" fill="black"/>
<path d="M 307,200 L 306,201 L 304,201 L 303,202 L 302,202 L 295,209 L 295,210 L 294,211 L 294,212 L 293,213 L 293,216 L 292,217 L 292,222 L 293,223 L 293,225 L 294,226 L 294,228 L 295,229 L 295,230 L 316,251 L 316,252 L 368,304 L 357,315 L 357,316 L 302,371 L 302,372 L 295,379 L 295,380 L 294,381 L 294,382 L 293,383 L 293,386 L 292,387 L 292,392 L 293,393 L 293,396 L 294,397 L 294,398 L 295,399 L 295,400 L 301,406 L 302,406 L 303,407 L 304,407 L 305,408 L 306,408 L 307,409 L 318,409 L 319,408 L 321,408 L 323,406 L 324,406 L 346,384 L 346,383 L 382,347 L 382,346 L 412,316 L 412,315 L 413,314 L 413,313 L 414,312 L 414,311 L 415,310 L 415,299 L 414,298 L 414,296 L 413,295 L 413,294 L 401,282 L 401,281 L 400,281 L 399,280 L 399,279 L 323,203 L 322,203 L 320,201 L 318,201 L 317,200 Z" fill="black"/>
<path d="M 140,158 L 139,159 L 132,159 L 131,160 L 127,160 L 126,161 L 123,161 L 122,162 L 119,162 L 118,163 L 116,163 L 115,164 L 113,164 L 112,165 L 110,165 L 109,166 L 108,166 L 107,167 L 106,167 L 105,168 L 104,168 L 103,169 L 102,169 L 101,170 L 100,170 L 99,171 L 98,171 L 97,172 L 96,172 L 94,174 L 93,174 L 92,175 L 91,175 L 89,177 L 88,177 L 85,180 L 84,180 L 78,186 L 77,186 L 71,192 L 71,193 L 66,198 L 66,199 L 63,202 L 63,203 L 61,205 L 61,206 L 59,208 L 59,209 L 57,211 L 57,212 L 56,213 L 56,214 L 55,215 L 55,216 L 53,218 L 53,220 L 52,221 L 52,222 L 51,223 L 51,224 L 50,225 L 50,226 L 49,227 L 49,229 L 48,230 L 48,232 L 47,233 L 47,234 L 46,235 L 46,238 L 45,239 L 45,242 L 44,243 L 44,246 L 43,247 L 43,251 L 42,252 L 42,260 L 41,261 L 41,323 L 42,324 L 42,330 L 43,331 L 43,335 L 44,336 L 44,340 L 45,341 L 45,343 L 46,344 L 46,346 L 47,347 L 47,350 L 48,351 L 48,352 L 49,353 L 49,355 L 50,356 L 50,357 L 51,358 L 51,360 L 52,361 L 52,362 L 53,363 L 53,364 L 54,365 L 54,366 L 56,368 L 56,369 L 57,370 L 57,371 L 59,373 L 59,374 L 60,375 L 60,376 L 63,379 L 63,380 L 66,383 L 66,384 L 74,392 L 74,393 L 75,394 L 76,394 L 82,400 L 83,400 L 86,403 L 87,403 L 90,406 L 91,406 L 92,407 L 93,407 L 95,409 L 96,409 L 97,410 L 98,410 L 99,411 L 100,411 L 101,412 L 102,412 L 103,413 L 104,413 L 105,414 L 106,414 L 107,415 L 109,415 L 110,416 L 111,416 L 112,417 L 114,417 L 115,418 L 117,418 L 118,419 L 120,419 L 121,420 L 124,420 L 125,421 L 130,421 L 131,422 L 136,422 L 137,423 L 164,423 L 165,422 L 170,422 L 171,421 L 175,421 L 176,420 L 179,420 L 180,419 L 183,419 L 184,418 L 186,418 L 187,417 L 188,417 L 189,416 L 191,416 L 192,415 L 193,415 L 194,414 L 196,414 L 197,413 L 198,413 L 199,412 L 200,412 L 202,410 L 203,410 L 204,409 L 205,409 L 207,407 L 208,407 L 209,406 L 210,406 L 213,403 L 214,403 L 218,399 L 219,399 L 226,392 L 226,391 L 229,388 L 229,387 L 231,385 L 231,384 L 232,383 L 232,381 L 233,380 L 233,377 L 234,376 L 234,374 L 233,373 L 233,368 L 232,367 L 232,366 L 231,365 L 231,364 L 230,363 L 230,362 L 224,356 L 223,356 L 222,355 L 220,355 L 219,354 L 217,354 L 216,353 L 213,353 L 212,354 L 209,354 L 208,355 L 207,355 L 204,358 L 203,358 L 189,372 L 188,372 L 186,374 L 185,374 L 184,375 L 183,375 L 182,376 L 181,376 L 180,377 L 179,377 L 178,378 L 177,378 L 176,379 L 175,379 L 174,380 L 172,380 L 171,381 L 168,381 L 167,382 L 162,382 L 161,383 L 141,383 L 140,382 L 136,382 L 135,381 L 132,381 L 131,380 L 129,380 L 128,379 L 126,379 L 125,378 L 123,378 L 122,377 L 121,377 L 120,376 L 119,376 L 117,374 L 116,374 L 115,373 L 114,373 L 111,370 L 110,370 L 106,366 L 105,366 L 100,361 L 100,360 L 96,356 L 96,355 L 94,353 L 94,352 L 92,350 L 92,349 L 91,348 L 91,347 L 90,346 L 90,345 L 89,344 L 89,343 L 88,342 L 88,341 L 87,340 L 87,338 L 86,337 L 86,335 L 85,334 L 85,332 L 84,331 L 84,328 L 83,327 L 83,323 L 82,322 L 82,315 L 81,314 L 81,267 L 82,266 L 82,258 L 83,257 L 83,253 L 84,252 L 84,249 L 85,248 L 85,246 L 86,245 L 86,243 L 87,242 L 87,241 L 88,240 L 88,238 L 89,237 L 89,236 L 90,235 L 90,234 L 92,232 L 92,231 L 93,230 L 93,229 L 95,227 L 95,226 L 98,223 L 98,222 L 107,213 L 108,213 L 111,210 L 112,210 L 114,208 L 115,208 L 117,206 L 118,206 L 119,205 L 120,205 L 121,204 L 122,204 L 123,203 L 124,203 L 125,202 L 127,202 L 128,201 L 130,201 L 131,200 L 134,200 L 135,199 L 139,199 L 140,198 L 161,198 L 162,199 L 167,199 L 168,200 L 171,200 L 172,201 L 174,201 L 175,202 L 177,202 L 178,203 L 180,203 L 181,204 L 182,204 L 183,205 L 184,205 L 186,207 L 187,207 L 188,208 L 189,208 L 191,210 L 192,210 L 196,214 L 197,214 L 202,219 L 203,219 L 205,221 L 206,221 L 207,222 L 217,222 L 218,221 L 219,221 L 220,220 L 221,220 L 222,219 L 223,219 L 228,214 L 228,213 L 229,212 L 229,211 L 230,210 L 230,209 L 231,208 L 231,196 L 230,195 L 230,194 L 229,193 L 229,192 L 219,182 L 218,182 L 215,179 L 214,179 L 212,177 L 211,177 L 209,175 L 208,175 L 206,173 L 205,173 L 204,172 L 203,172 L 202,171 L 201,171 L 199,169 L 198,169 L 197,168 L 195,168 L 194,167 L 193,167 L 192,166 L 191,166 L 190,165 L 188,165 L 187,164 L 185,164 L 184,163 L 182,163 L 181,162 L 178,162 L 177,161 L 174,161 L 173,160 L 169,160 L 168,159 L 161,159 L 160,158 Z" fill="black"/>
<path d="M 31,24 L 30,25 L 28,25 L 25,28 L 25,29 L 24,30 L 24,56 L 25,57 L 25,58 L 27,60 L 28,60 L 29,61 L 755,61 L 756,60 L 757,60 L 759,58 L 759,57 L 760,56 L 760,30 L 759,29 L 759,28 L 756,25 L 753,25 L 752,24 Z" fill="black"/>
</svg>